<?xml version="1.0" ?><svg enable-background="new 0 0 24 24" id="Layer_1" version="1.1" viewBox="0 0 24 24" xml:space="preserve" xmlns="http://www.w3.org/2000/svg" xmlns:xlink="http://www.w3.org/1999/xlink"><g><path d="M18.5,12c0,3.5898438-2.9101562,6.5-6.5,6.5S5.5,15.5898438,5.5,12S8.4101562,5.5,12,5.5   c1.7285767,0,3.2953491,0.6792603,4.4597168,1.7797852l4.1691284-3.598877C18.4448853,1.4163208,15.3872681,0,12,0   C5.3828125,0,0,5.3833008,0,12s5.3828125,12,12,12s12-5.3833008,12-12H18.5z" fill="#999999"/><circle cx="12" cy="12" fill="#808080" id="XMLID_1331_" r="12"/><path d="M19,12c0,3.8659668-3.1340332,7-7,7s-7-3.1340332-7-7c0-3.8660278,3.1340332-7,7-7   c1.8799438,0,3.5830688,0.7450562,4.8405762,1.9509888l3.788269-3.2700806C18.4448853,1.4163208,15.3872681,0,12,0   C5.3828125,0,0,5.3833008,0,12s5.3828125,12,12,12s12-5.3833008,12-12H19z" fill="#999999"/><circle cx="12" cy="2.5" fill="#B3B3B3" r="1"/><circle cx="12" cy="21.5" fill="#B3B3B3" r="1"/><circle cx="2.5" cy="12" fill="#B3B3B3" r="1"/><ellipse cx="5.2824855" cy="18.717514" fill="#B3B3B3" rx="1" ry="1" transform="matrix(0.7071068 -0.7071068 0.7071068 0.7071068 -11.688077 9.217514)"/><ellipse cx="18.717514" cy="18.717514" fill="#B3B3B3" rx="1" ry="1" transform="matrix(0.7071068 -0.7071068 0.7071068 0.7071068 -7.7530484 18.717514)"/><ellipse cx="5.2824855" cy="5.2824855" fill="#B3B3B3" rx="1" ry="1" transform="matrix(0.7071068 -0.7071068 0.7071068 0.7071068 -2.1880772 5.2824855)"/><circle cx="12" cy="12" fill="#808080" id="XMLID_1329_" r="6"/><circle cx="12" cy="12" fill="#808080" id="XMLID_1330_" r="7"/><path d="M19,12.25c0-0.0421753-0.0055542-0.0829468-0.0062866-0.125   C18.9262695,15.9326782,15.8237915,19,12,19s-6.9325562-3.0673218-7-6.875c-0.0007324,0.0420532,0,0.0828247,0,0.125   c0,3.8659668,3.1340332,7,7,7S19,16.1159668,19,12.25z" fill="#FFFFFF" opacity="0.2"/><path d="M18.9204712,13h-3.0618896C15.9418335,12.6785889,16,12.3474121,16,12c0-2.2091675-1.7908325-4-4-4   s-4,1.7908325-4,4c0,1.1045532,0.4477081,2.104599,1.1715698,2.8284302   c1.0143032,1.0142612,4.0571289,4.0571289,4.0571289,4.0571289C16.1837158,18.3613281,18.4920044,15.9870605,18.9204712,13z" fill="#4D4D4D"/><path d="M22,13H12c-0.5527344,0-1-0.4477539-1-1s0.4472656-1,1-1h10c0.5527344,0,1,0.4477539,1,1   S22.5527344,13,22,13z" fill="#B3B3B3"/><path d="M11.9476929,11.25h10.1046143c0.4083252,0,0.7757454,0.2474709,0.9351692,0.5920143   C22.9069099,11.3705788,22.494812,11,22,11H12c-0.494812,0-0.8995514,0.3295527-0.9800568,0.8008661   C11.1793671,11.4563837,11.5393677,11.25,11.9476929,11.25z" fill="#FFFFFF" opacity="0.2"/><path d="M23,12c0,0.5522461-0.4472656,1-1,1h-3.0795288   c-0.4285278,2.987793-2.737854,5.3624878-5.6939697,5.8859253l3.9352417,3.9463501C21.2018433,20.9012451,24,16.7764893,24,12H23z" fill="#666666" opacity="0.5"/><path d="M12,5c-3.8659668,0-7,3.1339722-7,7c0,0.0421753-0.0007324,0.0688839,0,0.1109371   C5.0674438,8.3032589,8.1762085,5.25,12,5.25c2.828125,0,4.8405762,1.7009888,4.8405762,1.7009888   C15.5842896,5.7525635,13.8733521,5,12,5z" opacity="0.1"/><linearGradient gradientUnits="userSpaceOnUse" id="XMLID_6_" x1="1.1217111" x2="22.8782883" y1="6.9273705" y2="17.0726299"><stop offset="0" style="stop-color:#FFFFFF;stop-opacity:0.2"/><stop offset="1" style="stop-color:#FFFFFF;stop-opacity:0"/></linearGradient><circle cx="12" cy="12" fill="url(#XMLID_6_)" id="XMLID_4_" r="12"/></g><g/><g/><g/><g/><g/><g/><g/><g/><g/><g/><g/><g/><g/><g/><g/></svg>