<?xml version="1.0" standalone="no"?>
<!DOCTYPE svg PUBLIC "-//W3C//DTD SVG 20010904//EN"
 "http://www.w3.org/TR/2001/REC-SVG-20010904/DTD/svg10.dtd">
<svg version="1.0" xmlns="http://www.w3.org/2000/svg"
 width="910.000000pt" height="910.000000pt" viewBox="0 0 910.000000 910.000000"
 preserveAspectRatio="xMidYMid meet">

<g transform="translate(0.000000,910.000000) scale(0.100000,-0.100000)"
fill="#000000" stroke="none">
<path d="M4385 9093 c-38 -1 -133 -7 -210 -14 -633 -50 -1262 -239 -1821 -549
-365 -202 -670 -429 -973 -725 -497 -486 -853 -1028 -1091 -1664 -197 -524
-284 -1011 -284 -1591 0 -358 26 -627 90 -932 296 -1414 1250 -2604 2571
-3207 592 -270 1214 -404 1878 -404 286 0 418 9 685 48 756 110 1483 419 2100
894 221 170 500 435 680 645 988 1159 1333 2739 915 4196 -466 1627 -1773
2849 -3430 3210 -122 26 -397 65 -560 79 -123 11 -424 19 -550 14z m605 -1183
l0 -240 23 -4 c356 -67 419 -84 586 -159 437 -198 689 -553 756 -1064 15 -117
20 -392 9 -502 l-7 -61 -748 0 -749 0 0 219 c0 330 -22 497 -76 583 -38 60
-113 91 -207 86 -162 -8 -232 -96 -259 -327 -22 -186 22 -432 94 -532 81 -111
306 -271 873 -619 627 -384 801 -522 954 -750 117 -176 178 -315 231 -531 135
-552 59 -1242 -180 -1649 -236 -402 -663 -664 -1222 -751 l-78 -12 0 -283 0
-284 -345 0 -345 0 0 289 0 290 -57 6 c-326 38 -648 174 -913 385 -211 168
-343 366 -424 632 -78 259 -104 452 -113 856 l-6 282 756 0 757 0 0 -357 c0
-390 12 -618 37 -727 28 -127 112 -184 255 -173 129 9 206 72 250 205 20 61
22 85 21 282 -2 322 -39 584 -97 697 -48 93 -160 208 -299 306 -34 25 -188
126 -342 225 -795 510 -925 624 -1118 980 -201 370 -266 731 -216 1206 49 471
323 854 757 1058 184 87 430 156 657 183 28 3 60 8 73 11 l22 4 0 240 0 240
345 0 345 0 0 -240z"/>
</g>
</svg>
