<?xml version="1.0" standalone="no"?>
<!DOCTYPE svg PUBLIC "-//W3C//DTD SVG 20010904//EN"
 "http://www.w3.org/TR/2001/REC-SVG-20010904/DTD/svg10.dtd">
<svg version="1.0" xmlns="http://www.w3.org/2000/svg"
 width="260.000000pt" height="260.000000pt" viewBox="0 0 260.000000 260.000000"
 preserveAspectRatio="xMidYMid meet">

<g transform="translate(0.000000,260.000000) scale(0.100000,-0.100000)"
fill="#000000" stroke="none">
<path d="M1098 2545 c-426 -72 -781 -354 -950 -755 -68 -161 -98 -315 -98
-501 0 -615 442 -1145 1039 -1244 151 -26 380 -17 515 19 475 127 817 486 922
968 42 191 26 471 -38 663 -35 105 -122 277 -181 355 -202 269 -488 443 -816
496 -105 17 -289 16 -393 -1z m349 -136 c450 -61 823 -401 934 -853 30 -121
36 -317 14 -446 -58 -352 -278 -656 -590 -817 -153 -78 -275 -110 -455 -120
-754 -38 -1326 693 -1119 1427 28 99 108 267 163 344 244 343 647 520 1053
465z"/>
<path d="M1133 2276 c-337 -65 -615 -290 -742 -602 -48 -119 -62 -190 -68
-344 -4 -120 -2 -161 15 -240 37 -179 124 -347 247 -478 261 -278 632 -378
1000 -270 205 60 408 210 528 391 54 81 114 212 139 304 30 108 32 392 4 498
-50 188 -133 332 -267 465 -132 131 -270 211 -454 261 -94 26 -304 34 -402 15z
m570 -533 c8 -10 17 -31 19 -47 3 -26 9 -30 57 -42 60 -16 108 -41 116 -62 5
-14 -54 -122 -67 -122 -3 0 -28 9 -53 20 -54 23 -149 29 -182 11 -17 -9 -23
-21 -23 -46 0 -40 19 -53 151 -109 147 -63 192 -114 192 -221 0 -66 -16 -106
-55 -141 -28 -26 -101 -64 -123 -64 -10 0 -15 -10 -15 -33 0 -49 -14 -57 -100
-57 -85 0 -100 8 -100 55 0 30 -3 32 -74 53 -41 12 -87 32 -102 45 l-27 24 37
61 c21 34 39 62 41 62 2 0 27 -11 56 -25 99 -46 220 -46 241 1 23 50 0 71
-145 132 -38 16 -88 43 -113 61 -133 93 -101 298 56 353 25 8 30 15 30 43 0
51 21 65 99 65 52 0 72 -4 84 -17z m-623 -74 c73 -11 167 -50 176 -73 5 -14
-22 -73 -50 -110 -15 -18 -16 -18 -66 3 -68 29 -161 32 -189 7 -42 -38 -15
-93 56 -117 78 -25 181 -80 216 -115 62 -62 73 -173 24 -246 -54 -79 -161
-116 -302 -104 -118 11 -245 55 -259 91 -3 10 42 94 64 118 4 5 25 0 46 -11
85 -42 211 -53 249 -22 22 19 18 58 -9 83 -13 12 -60 37 -105 55 -110 45 -170
89 -198 143 -25 49 -28 85 -12 144 16 58 41 87 99 119 77 42 154 52 260 35z"/>
</g>
</svg>
