<?xml version="1.0" standalone="no"?>
<!DOCTYPE svg PUBLIC "-//W3C//DTD SVG 20010904//EN"
 "http://www.w3.org/TR/2001/REC-SVG-20010904/DTD/svg10.dtd">
<svg version="1.0" xmlns="http://www.w3.org/2000/svg"
 width="300.000000pt" height="300.000000pt" viewBox="0 0 300.000000 300.000000"
 preserveAspectRatio="xMidYMid meet">

<g transform="translate(0.000000,300.000000) scale(0.100000,-0.100000)"
fill="#000000" stroke="none">
<path d="M1249 2986 c-325 -57 -601 -206 -836 -449 -198 -206 -326 -448 -389
-737 -15 -68 -19 -127 -19 -300 0 -173 4 -232 19 -300 43 -197 117 -374 226
-538 68 -102 217 -264 318 -344 161 -129 384 -236 595 -286 104 -25 128 -27
337 -27 209 0 233 2 337 27 269 64 501 190 697 378 248 238 395 515 452 850
23 138 15 435 -14 561 -70 298 -196 524 -411 740 -216 216 -457 349 -751 414
-102 23 -454 30 -561 11z m949 -893 l2 -173 -255 0 -255 0 0 -109 0 -108 98
-7 c359 -25 622 -108 622 -196 0 -89 -253 -167 -627 -196 l-93 -7 -2 -356 -3
-356 -185 0 -185 0 -3 356 -2 356 -93 7 c-619 47 -829 219 -404 331 105 28
258 51 400 61 l97 7 0 108 0 109 -252 2 -253 3 -3 160 c-1 87 0 165 2 172 4
11 138 13 698 11 l693 -3 3 -172z"/>
<path d="M1130 1659 c-268 -28 -456 -87 -448 -141 19 -136 835 -207 1353 -118
193 34 280 71 280 120 0 62 -219 122 -532 146 l-93 7 0 -127 0 -126 -187 2
-188 3 -3 123 -3 122 -47 -1 c-26 -1 -85 -6 -132 -10z"/>
</g>
</svg>
